<svg id="Layer_1" data-name="Layer 1" xmlns="http://www.w3.org/2000/svg" viewBox="0 0 421.01 326"><title>gvlogo</title><g id="Main"><path d="M414.87,371.64,454.72,424a8,8,0,0,0,6.35,3.15l227.57.64a8,8,0,0,0,7.76-5.91l14.23-52.17a8,8,0,0,0-7.71-10.12l-281.65-.79A8,8,0,0,0,414.87,371.64Z" transform="translate(-289.91 -358.76)" style="fill:#4154f1"/><path d="M586,671.89l-39.84-52.32a8,8,0,0,0-6.36-3.16l-163-.45,42.91-157.28a8.05,8.05,0,0,0-1.36-7l-39.84-52.32a8,8,0,0,0-14.11,2.75L290.19,673.86A8,8,0,0,0,297.91,684l281.64.78A8,8,0,0,0,586,671.89Z" transform="translate(-289.91 -358.76)" style="fill:#4154f1"/><path d="M453.53,501.26l-14.22,52.13A8,8,0,0,0,447,563.52l139.93.39-5.72,21a8,8,0,0,0,1.35,7l39.82,52.28a8,8,0,0,0,14.11-2.75l36.92-135.34a8,8,0,0,0-7.71-10.13l-204.43-.56A8,8,0,0,0,453.53,501.26Z" transform="translate(-289.91 -358.76)" style="fill:#4154f1"/></g></svg>